<svg id="Layer_1" viewBox="0 0 64 64" xmlns="http://www.w3.org/2000/svg" data-name="Layer 1"><path d="m32 2c-16.539978 0-30 13.4599609-30 30 0 8.3800049 3.539978 16.4400024 9.710022 22.0999756.0199585.0200195.039978.0400391.0599976.0499878 5.5299683 5.0599976 12.7099609 7.8500366 20.2299805 7.8500366s14.7000122-2.7900391 20.2299805-7.8500366c.0200195-.0099487.0400391-.0299683.0599976-.0499878 6.1700439-5.6599731 9.710022-13.7199707 9.710022-22.0999756 0-16.5400391-13.460022-30-30-30zm0 12.4400024c5.7199707 0 10.3699951 4.6599731 10.3699951 10.3699951 0 5.7199707-4.6500244 10.3699951-10.3699951 10.3699951s-10.3699951-4.6500244-10.3699951-10.3699951c0-5.710022 4.6500244-10.3699951 10.3699951-10.3699951zm18.9299927 38.1799927c-.1300049.1199951-.2600098.2399902-.3900146.3399658-5.1099854 4.5500488-11.6799927 7.0400391-18.539978 7.0400391s-13.4299927-2.4899902-18.539978-7.0400391c-.1300049-.0999756-.2600098-.2199707-.3900146-.3399658-.460022-.4199829-.9100342-.8599854-1.3300171-1.3099976 1.8800049-8.0200195 9.0900269-13.8599854 17.5100098-13.8599854h5.5c8.4199829 0 15.6300049 5.8399658 17.5100098 13.8599854-.4199829.4500122-.8699951.8900146-1.3300171 1.3099976z"/></svg>